<svg width="304" height="33" viewBox="0 0 304 33" fill="none" xmlns="http://www.w3.org/2000/svg">
<path d="M1.672 26C1.432 26 1.228 25.928 1.06 25.784C0.892 25.616 0.808 25.4 0.808 25.136V1.7C0.808 1.436 0.892 1.22 1.06 1.052C1.228 0.883999 1.432 0.799998 1.672 0.799998H4.948C5.212 0.799998 5.416 0.883999 5.56 1.052C5.728 1.22 5.812 1.436 5.812 1.7V10.988H16.432V1.7C16.432 1.436 16.516 1.22 16.684 1.052C16.852 0.883999 17.056 0.799998 17.296 0.799998H20.536C20.8 0.799998 21.016 0.883999 21.184 1.052C21.352 1.22 21.436 1.436 21.436 1.7V25.136C21.436 25.376 21.352 25.58 21.184 25.748C21.016 25.916 20.8 26 20.536 26H17.296C17.056 26 16.852 25.916 16.684 25.748C16.516 25.58 16.432 25.376 16.432 25.136V15.488H5.812V25.136C5.812 25.376 5.728 25.58 5.56 25.748C5.416 25.916 5.212 26 4.948 26H1.672ZM32.0386 26.36C30.7906 26.36 29.6626 26.12 28.6546 25.64C27.6466 25.136 26.8426 24.476 26.2426 23.66C25.6666 22.82 25.3786 21.884 25.3786 20.852C25.3786 19.172 26.0506 17.84 27.3946 16.856C28.7626 15.848 30.5626 15.176 32.7946 14.84L37.7266 14.12V13.364C37.7266 12.356 37.4746 11.576 36.9706 11.024C36.4666 10.472 35.6026 10.196 34.3786 10.196C33.5146 10.196 32.8066 10.376 32.2546 10.736C31.7266 11.072 31.3306 11.528 31.0666 12.104C30.8746 12.416 30.5986 12.572 30.2386 12.572H27.3946C27.1306 12.572 26.9266 12.5 26.7826 12.356C26.6626 12.212 26.6026 12.02 26.6026 11.78C26.6266 11.396 26.7826 10.928 27.0706 10.376C27.3586 9.824 27.8146 9.296 28.4386 8.792C29.0626 8.264 29.8666 7.82 30.8506 7.46C31.8346 7.1 33.0226 6.92 34.4146 6.92C35.9266 6.92 37.1986 7.112 38.2306 7.496C39.2866 7.856 40.1266 8.348 40.7506 8.972C41.3746 9.596 41.8306 10.328 42.1186 11.168C42.4066 12.008 42.5506 12.896 42.5506 13.832V25.136C42.5506 25.376 42.4666 25.58 42.2986 25.748C42.1306 25.916 41.9266 26 41.6866 26H38.7706C38.5066 26 38.2906 25.916 38.1226 25.748C37.9786 25.58 37.9066 25.376 37.9066 25.136V23.732C37.5946 24.188 37.1746 24.62 36.6466 25.028C36.1186 25.412 35.4706 25.736 34.7026 26C33.9586 26.24 33.0706 26.36 32.0386 26.36ZM33.2626 22.94C34.1026 22.94 34.8586 22.76 35.5306 22.4C36.2266 22.04 36.7666 21.488 37.1506 20.744C37.5586 19.976 37.7626 19.016 37.7626 17.864V17.108L34.1626 17.684C32.7466 17.9 31.6906 18.248 30.9946 18.728C30.2986 19.208 29.9506 19.796 29.9506 20.492C29.9506 21.02 30.1066 21.476 30.4186 21.86C30.7546 22.22 31.1746 22.496 31.6786 22.688C32.1826 22.856 32.7106 22.94 33.2626 22.94ZM48.069 32.84C47.829 32.84 47.625 32.756 47.457 32.588C47.289 32.42 47.205 32.216 47.205 31.976V8.144C47.205 7.904 47.289 7.7 47.457 7.532C47.625 7.364 47.829 7.28 48.069 7.28H50.913C51.177 7.28 51.381 7.364 51.525 7.532C51.693 7.7 51.777 7.904 51.777 8.144V9.584C52.353 8.816 53.109 8.18 54.045 7.676C54.981 7.172 56.145 6.92 57.537 6.92C58.809 6.92 59.913 7.124 60.849 7.532C61.785 7.94 62.565 8.528 63.189 9.296C63.813 10.04 64.293 10.928 64.629 11.96C64.965 12.992 65.157 14.132 65.205 15.38C65.229 15.788 65.241 16.208 65.241 16.64C65.241 17.072 65.229 17.504 65.205 17.936C65.181 19.136 65.001 20.252 64.665 21.284C64.329 22.292 63.837 23.18 63.189 23.948C62.565 24.692 61.785 25.28 60.849 25.712C59.913 26.144 58.809 26.36 57.537 26.36C56.241 26.36 55.137 26.132 54.225 25.676C53.313 25.196 52.569 24.572 51.993 23.804V31.976C51.993 32.216 51.909 32.42 51.741 32.588C51.597 32.756 51.393 32.84 51.129 32.84H48.069ZM56.205 22.508C57.237 22.508 58.041 22.292 58.617 21.86C59.193 21.404 59.601 20.816 59.841 20.096C60.105 19.376 60.261 18.584 60.309 17.72C60.357 17 60.357 16.28 60.309 15.56C60.261 14.696 60.105 13.904 59.841 13.184C59.601 12.464 59.193 11.888 58.617 11.456C58.041 11 57.237 10.772 56.205 10.772C55.221 10.772 54.417 11 53.793 11.456C53.193 11.912 52.749 12.5 52.461 13.22C52.197 13.916 52.041 14.636 51.993 15.38C51.969 15.812 51.957 16.268 51.957 16.748C51.957 17.228 51.969 17.696 51.993 18.152C52.017 18.872 52.185 19.568 52.497 20.24C52.809 20.888 53.265 21.428 53.865 21.86C54.465 22.292 55.245 22.508 56.205 22.508ZM70.6143 32.84C70.3743 32.84 70.1703 32.756 70.0023 32.588C69.8343 32.444 69.7503 32.24 69.7503 31.976V29.924C69.7503 29.66 69.8343 29.444 70.0023 29.276C70.1703 29.132 70.3743 29.06 70.6143 29.06H71.7303C72.2103 29.06 72.6063 28.964 72.9183 28.772C73.2303 28.58 73.5183 28.256 73.7823 27.8C74.0463 27.368 74.3343 26.768 74.6463 26L82.1343 7.964C82.2303 7.772 82.3503 7.616 82.4943 7.496C82.6383 7.352 82.8543 7.28 83.1423 7.28H85.8783C86.0703 7.28 86.2383 7.352 86.3823 7.496C86.5503 7.64 86.6343 7.808 86.6343 8C86.6343 8.096 86.6223 8.18 86.5983 8.252C86.5983 8.324 86.5623 8.432 86.4903 8.576L79.6503 24.92C79.2423 25.952 78.7983 26.936 78.3183 27.872C77.8623 28.832 77.3463 29.684 76.7703 30.428C76.2183 31.196 75.5703 31.784 74.8263 32.192C74.0823 32.624 73.2063 32.84 72.1982 32.84H70.6143ZM75.2583 25.532L67.9503 8.576C67.8543 8.336 67.8063 8.168 67.8063 8.072C67.8303 7.856 67.9143 7.676 68.0583 7.532C68.2023 7.364 68.3823 7.28 68.5983 7.28H71.4783C71.7663 7.28 71.9703 7.352 72.0903 7.496C72.2343 7.64 72.3423 7.796 72.4143 7.964L77.9943 21.716L75.2583 25.532ZM90.6775 26C90.4375 26 90.2335 25.916 90.0655 25.748C89.8975 25.58 89.8135 25.376 89.8135 25.136V8.144C89.8135 7.904 89.8975 7.7 90.0655 7.532C90.2335 7.364 90.4375 7.28 90.6775 7.28H93.5215C93.7855 7.28 93.9895 7.364 94.1335 7.532C94.3015 7.7 94.3855 7.904 94.3855 8.144V22.184H99.7855V8.144C99.7855 7.904 99.8575 7.7 100.002 7.532C100.17 7.364 100.386 7.28 100.65 7.28H103.242C103.506 7.28 103.71 7.364 103.854 7.532C104.022 7.7 104.106 7.904 104.106 8.144V22.184H109.506V8.144C109.506 7.904 109.578 7.7 109.722 7.532C109.89 7.364 110.106 7.28 110.37 7.28H113.214C113.454 7.28 113.658 7.364 113.826 7.532C113.994 7.7 114.078 7.904 114.078 8.144V25.136C114.078 25.376 113.994 25.58 113.826 25.748C113.658 25.916 113.454 26 113.214 26H90.6775ZM126.987 26.36C124.323 26.36 122.211 25.592 120.651 24.056C119.091 22.52 118.251 20.336 118.131 17.504C118.107 17.264 118.095 16.964 118.095 16.604C118.095 16.22 118.107 15.92 118.131 15.704C118.227 13.904 118.635 12.344 119.355 11.024C120.099 9.704 121.119 8.696 122.415 8C123.711 7.28 125.235 6.92 126.987 6.92C128.931 6.92 130.563 7.328 131.883 8.144C133.203 8.936 134.199 10.052 134.871 11.492C135.543 12.908 135.879 14.552 135.879 16.424V17.18C135.879 17.42 135.795 17.624 135.627 17.792C135.459 17.96 135.243 18.044 134.979 18.044H123.027C123.027 18.044 123.027 18.08 123.027 18.152C123.027 18.224 123.027 18.284 123.027 18.332C123.051 19.172 123.207 19.952 123.495 20.672C123.807 21.368 124.251 21.932 124.827 22.364C125.427 22.796 126.135 23.012 126.951 23.012C127.623 23.012 128.187 22.916 128.643 22.724C129.099 22.508 129.471 22.268 129.759 22.004C130.047 21.74 130.251 21.524 130.371 21.356C130.587 21.068 130.755 20.9 130.875 20.852C131.019 20.78 131.223 20.744 131.487 20.744H134.583C134.823 20.744 135.015 20.816 135.159 20.96C135.327 21.104 135.399 21.284 135.375 21.5C135.351 21.884 135.147 22.352 134.763 22.904C134.403 23.456 133.875 23.996 133.179 24.524C132.483 25.052 131.607 25.496 130.551 25.856C129.519 26.192 128.331 26.36 126.987 26.36ZM123.027 15.02H130.983V14.912C130.983 13.976 130.827 13.16 130.515 12.464C130.203 11.768 129.747 11.216 129.147 10.808C128.547 10.4 127.827 10.196 126.987 10.196C126.147 10.196 125.427 10.4 124.827 10.808C124.227 11.216 123.771 11.768 123.459 12.464C123.171 13.16 123.027 13.976 123.027 14.912V15.02ZM140.564 26C140.324 26 140.12 25.916 139.952 25.748C139.784 25.58 139.7 25.376 139.7 25.136V8.144C139.7 7.904 139.784 7.7 139.952 7.532C140.12 7.364 140.324 7.28 140.564 7.28H143.552C143.816 7.28 144.02 7.364 144.164 7.532C144.332 7.7 144.416 7.904 144.416 8.144V14.588H152.552V8.144C152.552 7.904 152.636 7.7 152.804 7.532C152.972 7.364 153.176 7.28 153.416 7.28H156.404C156.644 7.28 156.848 7.364 157.016 7.532C157.184 7.7 157.268 7.904 157.268 8.144V25.136C157.268 25.376 157.184 25.58 157.016 25.748C156.848 25.916 156.644 26 156.404 26H153.416C153.176 26 152.972 25.916 152.804 25.748C152.636 25.58 152.552 25.376 152.552 25.136V18.368H144.416V25.136C144.416 25.376 144.332 25.58 144.164 25.748C144.02 25.916 143.816 26 143.552 26H140.564ZM162.958 26C162.742 26 162.55 25.916 162.382 25.748C162.214 25.58 162.13 25.388 162.13 25.172V8.144C162.13 7.904 162.214 7.7 162.382 7.532C162.55 7.364 162.754 7.28 162.994 7.28H165.982C166.246 7.28 166.45 7.364 166.594 7.532C166.762 7.7 166.846 7.904 166.846 8.144V22.364L165.586 21.464L175.486 7.856C175.606 7.688 175.738 7.556 175.882 7.46C176.026 7.34 176.218 7.28 176.458 7.28H179.194C179.41 7.28 179.602 7.364 179.77 7.532C179.938 7.676 180.022 7.856 180.022 8.072V25.136C180.022 25.376 179.938 25.58 179.77 25.748C179.602 25.916 179.398 26 179.158 26H176.17C175.906 26 175.69 25.916 175.522 25.748C175.378 25.58 175.306 25.376 175.306 25.136V11.564L176.638 11.744L166.666 25.424C166.57 25.568 166.438 25.7 166.27 25.82C166.126 25.94 165.934 26 165.694 26H162.958ZM196.44 26C196.176 26 195.96 25.916 195.792 25.748C195.648 25.58 195.576 25.376 195.576 25.136V19.628H192.012V19.448C189.588 19.448 187.764 18.896 186.54 17.792C185.34 16.664 184.74 15.188 184.74 13.364C184.74 11.348 185.376 9.836 186.648 8.828C187.92 7.796 189.756 7.28 192.156 7.28H199.5C199.74 7.28 199.944 7.364 200.112 7.532C200.28 7.7 200.364 7.904 200.364 8.144V25.136C200.364 25.376 200.28 25.58 200.112 25.748C199.944 25.916 199.74 26 199.5 26H196.44ZM184.92 26C184.704 26 184.524 25.928 184.38 25.784C184.236 25.64 184.164 25.472 184.164 25.28C184.164 25.208 184.176 25.124 184.2 25.028C184.224 24.908 184.284 24.8 184.38 24.704L188.412 18.368L192.804 18.944L188.808 25.46C188.736 25.604 188.616 25.736 188.448 25.856C188.28 25.952 188.1 26 187.908 26H184.92ZM192.048 16.208H195.648V10.7H192.264C191.16 10.7 190.344 10.904 189.816 11.312C189.288 11.696 189.024 12.38 189.024 13.364C189.024 14.204 189.264 14.888 189.744 15.416C190.248 15.944 191.016 16.208 192.048 16.208ZM206.023 26C205.783 26 205.591 25.928 205.447 25.784C205.303 25.64 205.231 25.46 205.231 25.244V7.964C205.231 7.772 205.303 7.616 205.447 7.496C205.615 7.352 205.783 7.28 205.951 7.28H208.975C209.383 7.28 209.695 7.484 209.911 7.892L215.455 17.972L220.999 7.892C221.215 7.484 221.527 7.28 221.935 7.28H224.923C225.139 7.28 225.319 7.352 225.463 7.496C225.607 7.616 225.679 7.772 225.679 7.964V25.244C225.679 25.46 225.607 25.64 225.463 25.784C225.319 25.928 225.127 26 224.887 26H221.791C221.551 26 221.359 25.928 221.215 25.784C221.095 25.64 221.035 25.46 221.035 25.244V12.176L222.511 12.428L217.183 22.256C217.063 22.472 216.919 22.676 216.751 22.868C216.583 23.036 216.343 23.12 216.031 23.12H214.843C214.555 23.12 214.327 23.036 214.159 22.868C213.991 22.7 213.847 22.496 213.727 22.256L208.507 12.824L209.875 12.608V25.244C209.875 25.46 209.803 25.64 209.659 25.784C209.515 25.928 209.335 26 209.119 26H206.023Z" fill="white"/>
<path d="M231.192 26C230.952 26 230.748 25.916 230.58 25.748C230.412 25.58 230.328 25.376 230.328 25.136V21.572C230.328 21.308 230.412 21.092 230.58 20.924C230.748 20.756 230.952 20.672 231.192 20.672H234.792C235.032 20.672 235.236 20.756 235.404 20.924C235.572 21.092 235.656 21.308 235.656 21.572V25.136C235.656 25.376 235.572 25.58 235.404 25.748C235.236 25.916 235.032 26 234.792 26H231.192ZM241.473 26C241.233 26 241.029 25.928 240.861 25.784C240.693 25.616 240.609 25.4 240.609 25.136V1.7C240.609 1.436 240.693 1.22 240.861 1.052C241.029 0.883999 241.233 0.799998 241.473 0.799998H244.749C245.013 0.799998 245.217 0.883999 245.361 1.052C245.529 1.22 245.613 1.436 245.613 1.7V10.988H256.233V1.7C256.233 1.436 256.317 1.22 256.485 1.052C256.653 0.883999 256.857 0.799998 257.097 0.799998H260.337C260.601 0.799998 260.817 0.883999 260.985 1.052C261.153 1.22 261.237 1.436 261.237 1.7V25.136C261.237 25.376 261.153 25.58 260.985 25.748C260.817 25.916 260.601 26 260.337 26H257.097C256.857 26 256.653 25.916 256.485 25.748C256.317 25.58 256.233 25.376 256.233 25.136V15.488H245.613V25.136C245.613 25.376 245.529 25.58 245.361 25.748C245.217 25.916 245.013 26 244.749 26H241.473ZM274.467 26.36C271.803 26.36 269.691 25.592 268.131 24.056C266.571 22.52 265.731 20.336 265.611 17.504C265.587 17.264 265.575 16.964 265.575 16.604C265.575 16.22 265.587 15.92 265.611 15.704C265.707 13.904 266.115 12.344 266.835 11.024C267.579 9.704 268.599 8.696 269.895 8C271.191 7.28 272.715 6.92 274.467 6.92C276.411 6.92 278.043 7.328 279.363 8.144C280.683 8.936 281.679 10.052 282.351 11.492C283.023 12.908 283.359 14.552 283.359 16.424V17.18C283.359 17.42 283.275 17.624 283.107 17.792C282.939 17.96 282.723 18.044 282.459 18.044H270.507C270.507 18.044 270.507 18.08 270.507 18.152C270.507 18.224 270.507 18.284 270.507 18.332C270.531 19.172 270.687 19.952 270.975 20.672C271.287 21.368 271.731 21.932 272.307 22.364C272.907 22.796 273.615 23.012 274.431 23.012C275.103 23.012 275.667 22.916 276.123 22.724C276.579 22.508 276.951 22.268 277.239 22.004C277.527 21.74 277.731 21.524 277.851 21.356C278.067 21.068 278.235 20.9 278.355 20.852C278.499 20.78 278.703 20.744 278.967 20.744H282.063C282.303 20.744 282.495 20.816 282.639 20.96C282.807 21.104 282.879 21.284 282.855 21.5C282.831 21.884 282.627 22.352 282.243 22.904C281.883 23.456 281.355 23.996 280.659 24.524C279.963 25.052 279.087 25.496 278.031 25.856C276.999 26.192 275.811 26.36 274.467 26.36ZM270.507 15.02H278.463V14.912C278.463 13.976 278.307 13.16 277.995 12.464C277.683 11.768 277.227 11.216 276.627 10.808C276.027 10.4 275.307 10.196 274.467 10.196C273.627 10.196 272.907 10.4 272.307 10.808C271.707 11.216 271.251 11.768 270.939 12.464C270.651 13.16 270.507 13.976 270.507 14.912V15.02ZM292.905 26C292.641 26 292.425 25.916 292.257 25.748C292.113 25.58 292.041 25.376 292.041 25.136V11.096H286.173C285.909 11.096 285.693 11.012 285.525 10.844C285.381 10.676 285.309 10.472 285.309 10.232V8.144C285.309 7.904 285.381 7.7 285.525 7.532C285.693 7.364 285.909 7.28 286.173 7.28H302.517C302.781 7.28 302.997 7.364 303.165 7.532C303.333 7.7 303.417 7.904 303.417 8.144V10.232C303.417 10.472 303.333 10.676 303.165 10.844C302.997 11.012 302.781 11.096 302.517 11.096H296.685V25.136C296.685 25.376 296.601 25.58 296.433 25.748C296.265 25.916 296.061 26 295.821 26H292.905Z" fill="#3C3B40"/>
</svg>
